<svg width="24" height="26" viewBox="0 0 24 26" fill="none" xmlns="http://www.w3.org/2000/svg">
<path d="M4.24371 25.75C3.65343 25.75 3.1517 25.5434 2.7385 25.1302C2.32531 24.717 2.11871 24.2153 2.11871 23.625V3.4375H0.666626V1.3125H7.32496V0.25H16.675V1.3125H23.3333V3.4375H21.8812V23.625C21.8812 24.1917 21.6687 24.6875 21.2437 25.1125C20.8187 25.5375 20.3229 25.75 19.7562 25.75H4.24371ZM19.7562 3.4375H4.24371V23.625H19.7562V3.4375ZM7.99788 20.5792H10.1229V6.44792H7.99788V20.5792ZM13.877 20.5792H16.002V6.44792H13.877V20.5792ZM4.24371 3.4375V23.625V3.4375Z" fill="black"/>
</svg>
